<?xml version="1.0" standalone="no"?>
<!DOCTYPE svg PUBLIC "-//W3C//DTD SVG 20010904//EN"
 "http://www.w3.org/TR/2001/REC-SVG-20010904/DTD/svg10.dtd">
<svg version="1.0" xmlns="http://www.w3.org/2000/svg"
 width="923.000000pt" height="1280.000000pt" viewBox="0 0 923.000000 1280.000000"
 preserveAspectRatio="xMidYMid meet">
<g transform="translate(0.000000,1280.000000) scale(0.100000,-0.100000)"
fill="#000000" stroke="none">
<path d="M4839 12776 c-42 -13 -96 -34 -121 -49 -92 -54 -170 -165 -204 -288
-21 -81 -284 -2009 -284 -2086 0 -85 29 -152 92 -209 86 -80 117 -91 314 -120
98 -14 183 -30 189 -35 6 -6 -22 -370 -78 -1017 -48 -554 -88 -1055 -87 -1114
0 -126 13 -114 -145 -121 -80 -4 -117 -11 -185 -37 -177 -66 -463 -124 -1030
-210 -930 -140 -1102 -169 -1373 -234 -368 -89 -580 -197 -627 -320 -11 -29
-12 -209 -1 -371 l6 -100 63 -33 c34 -18 60 -36 58 -40 -2 -4 -44 -27 -91 -52
-112 -56 -182 -120 -228 -208 -49 -92 -66 -171 -76 -354 -6 -94 -21 -213 -40
-308 -16 -85 -107 -564 -200 -1065 -249 -1330 -440 -2353 -546 -2918 l-93
-498 -64 -67 c-35 -37 -70 -82 -78 -100 -12 -30 -11 -36 7 -60 44 -59 73 -67
243 -67 172 0 232 14 270 62 38 49 26 89 -56 173 l-53 55 120 485 c65 267 169
686 229 932 61 247 160 649 220 895 472 1918 630 2566 639 2615 24 134 70 178
251 238 l129 43 153 -41 c713 -192 1470 -306 2258 -340 l165 -7 3 -36 c2 -20
-29 -472 -67 -1005 -39 -533 -72 -991 -74 -1019 -2 -31 -21 -91 -50 -159 -55
-126 -60 -174 -23 -211 38 -37 97 -49 251 -49 207 -1 288 30 301 115 6 38 -21
97 -114 248 -38 61 -52 94 -52 121 0 68 269 1972 281 1986 16 19 73 18 90 -2
21 -26 78 -50 194 -84 61 -18 121 -38 135 -45 29 -15 83 -70 98 -101 9 -17
453 -2368 939 -4968 l56 -298 -34 -26 c-89 -68 -121 -120 -103 -170 14 -38 51
-60 129 -77 121 -26 221 -30 308 -10 168 37 183 115 47 237 l-60 53 -150 1210
c-361 2909 -468 3795 -469 3877 -2 201 -74 357 -207 449 -24 16 -44 34 -44 38
0 16 1581 954 1591 944 6 -6 264 -889 575 -1964 455 -1577 563 -1960 558
-1989 -4 -19 -22 -84 -40 -143 -19 -60 -34 -128 -34 -151 0 -58 33 -105 95
-136 46 -23 60 -25 195 -25 114 0 156 4 197 18 56 20 108 69 119 113 9 35 -33
126 -115 254 -37 58 -75 119 -84 137 -9 17 -85 321 -167 675 -83 354 -209 891
-280 1193 -71 303 -208 887 -305 1299 -170 728 -215 937 -215 1000 0 21 10 41
31 61 56 54 74 101 73 190 0 94 -20 146 -82 215 l-40 46 14 134 c24 227 153
1492 175 1720 12 118 25 225 30 238 8 20 15 22 97 22 210 0 328 89 372 281 10
46 76 505 145 1019 70 514 133 969 141 1010 58 310 -66 539 -328 606 -53 14
-80 15 -183 5 -470 -44 -745 -55 -1315 -56 -643 0 -1011 21 -1565 90 -229 29
-613 91 -651 105 -34 13 -46 12 -135 -14z m761 -2881 c660 -82 1575 -155 1955
-155 72 0 136 -4 144 -9 17 -11 17 -10 -49 -656 -117 -1141 -140 -1377 -140
-1430 0 -69 5 -67 -200 -88 -643 -68 -1086 -74 -1565 -21 -152 16 -410 57
-490 77 l-50 12 -3 175 c-2 151 9 307 82 1137 47 530 87 967 91 973 8 13 -1
14 225 -15z"/>
</g>
</svg>
