<?xml version="1.0" standalone="no"?>
<!DOCTYPE svg PUBLIC "-//W3C//DTD SVG 20010904//EN"
 "http://www.w3.org/TR/2001/REC-SVG-20010904/DTD/svg10.dtd">
<svg version="1.0" xmlns="http://www.w3.org/2000/svg"
 width="804.000000pt" height="1280.000000pt" viewBox="0 0 804.000000 1280.000000"
 preserveAspectRatio="xMidYMid meet">
<metadata>
Created by potrace 1.15, written by Peter Selinger 2001-2017
</metadata>
<g transform="translate(0.000000,1280.000000) scale(0.100000,-0.100000)"
fill="#000000" stroke="none">
<path d="M3840 12789 c-69 -5 -162 -19 -207 -30 -71 -19 -83 -25 -83 -43 0
-21 -8 -22 -227 -39 -126 -9 -451 -35 -723 -57 -810 -64 -1610 -120 -2025
-142 -48 -2 -50 -1 -53 25 -3 24 -7 27 -45 27 -149 0 -450 -40 -472 -62 -6 -5
60 -536 161 -1313 258 -1984 328 -2652 354 -3385 12 -351 12 -1795 0 -2351
-17 -737 -37 -1043 -170 -2517 -33 -370 -60 -683 -60 -695 0 -12 31 -60 69
-108 l69 -86 149 28 c81 16 157 31 169 34 17 4 22 17 32 92 7 48 35 246 62
438 114 817 209 1656 236 2083 6 98 9 113 23 109 9 -3 304 -134 656 -291 352
-158 854 -382 1116 -499 l476 -212 7 -59 c3 -32 6 -131 6 -220 0 -178 41
-1693 65 -2401 22 -669 36 -1029 38 -1031 1 -1 45 -20 97 -43 l95 -42 129 36
c72 20 131 37 133 39 2 2 8 311 13 687 6 376 14 1001 20 1389 6 388 10 744 10
791 0 82 1 87 23 92 50 13 56 26 87 192 16 88 48 241 70 340 40 174 148 596
155 603 4 4 127 35 2090 532 308 78 600 152 649 165 61 15 98 20 115 14 14 -4
58 -17 97 -28 l71 -21 7 -482 c7 -476 26 -1195 46 -1723 23 -593 51 -1219 55
-1224 8 -7 187 -81 199 -81 6 0 61 14 122 32 l112 33 6 190 c3 104 8 390 11
635 3 245 12 922 20 1505 8 583 16 1330 20 1660 3 330 8 742 11 917 l6 316 43
11 42 11 13 127 c8 77 10 162 6 213 -6 74 -10 87 -29 96 -12 7 -52 28 -88 48
-224 122 -907 283 -2434 575 -346 66 -688 132 -760 146 -71 14 -141 25 -154
25 l-24 0 7 178 c8 193 -6 609 -30 932 -41 557 -109 1104 -305 2470 -66 462
-189 1343 -189 1356 0 5 -27 4 -190 -7z m-166 -1100 c9 -78 15 -143 14 -144
-2 -2 -313 -33 -693 -69 -379 -37 -773 -75 -875 -86 -102 -11 -408 -42 -680
-70 -272 -28 -544 -56 -603 -62 -65 -7 -111 -8 -116 -2 -8 9 -54 295 -48 301
2 2 577 55 1278 118 701 64 1360 124 1464 134 105 10 202 19 216 20 l26 1 17
-141z m68 -571 c9 -73 15 -134 14 -135 -1 -1 -139 -16 -306 -33 -307 -31 -892
-96 -1530 -170 -273 -32 -960 -109 -1090 -122 -24 -3 -24 -1 -46 142 -12 80
-21 146 -20 146 3 3 2894 302 2927 303 l35 1 16 -132z m52 -460 c14 -63 106
-976 136 -1343 38 -468 51 -720 57 -1130 l6 -410 -138 -23 c-76 -13 -341 -63
-589 -112 -535 -106 -802 -154 -1146 -210 -519 -84 -985 -162 -991 -165 -3 -3
-9 147 -12 333 -8 444 -37 840 -103 1447 -29 265 -114 947 -143 1145 -11 74
-18 136 -15 139 2 2 660 82 1462 177 801 94 1460 172 1464 173 4 1 10 -9 12
-21z m-2458 -4839 c115 -44 385 -148 599 -231 215 -83 599 -231 855 -330 256
-99 484 -186 506 -195 l42 -14 4 -417 c2 -229 4 -418 3 -419 0 -1 -187 79
-415 178 -564 245 -1318 571 -1585 686 -121 53 -224 99 -228 102 -6 6 2 721 8
721 1 0 96 -36 211 -81z m5984 -269 l0 -249 -37 -10 c-121 -31 -167 -41 -186
-41 -32 0 -977 264 -969 271 4 3 169 43 367 89 198 46 459 107 580 136 121 28
226 52 233 53 9 1 12 -55 12 -249z m-1457 -309 c232 -66 452 -128 489 -137 37
-10 66 -20 64 -21 -2 -2 -241 -61 -532 -132 -291 -71 -700 -170 -909 -221
-209 -51 -423 -103 -475 -115 -52 -13 -96 -22 -97 -21 -2 1 9 60 23 132 14 71
33 191 42 268 15 119 21 141 37 148 11 4 196 49 410 98 215 50 415 97 445 105
30 7 61 14 68 14 7 1 203 -53 435 -118z"/>
</g>
</svg>
